<svg id="plangular-icon-sprite" xmlns="http://www.w3.org/2000/svg" viewBox="0 0 32 160" width="32" height="160">

  <svg id="play" class="plangular-icon plangular-icon-play" xmlns="http://www.w3.org/2000/svg" viewBox="0 0 32 32" width="32" height="32" y="32">
    <path d="M0 0 L32 16 L0 32 z" />
  </svg>

  <svg id="pause" class="plangular-icon plangular-icon-pause" xmlns="http://www.w3.org/2000/svg" viewBox="0 0 32 32" width="32" height="32" y="64">
    <path d="M0 0 H12 V32 H0 z M20 0 H32 V32 H20 z" />
  </svg>

  <svg id="previous" class="plangular-icon plangular-icon-previous" xmlns="http://www.w3.org/2000/svg" viewBox="0 0 32 32" width="32" height="32" y="96">
    <path d="M0 0 H4 V14 L32 0 V32 L4 18 V32 H0 z" />
  </svg>

  <svg id="next" class="plangular-icon plangular-icon-next" xmlns="http://www.w3.org/2000/svg" viewBox="0 0 32 32" width="32" height="32" y="128">
    <path d="M0 0 L28 14 V0 H32 V32 H28 V18 L0 32 z" />
  </svg>

  <svg id="search" class="plangular-icon plangular-icon-search" xmlns="http://www.w3.org/2000/svg" viewBox="0 0 32 32" width="32" height="32" y="160">
    <path d="M12 0 A12 12 0 0 0 0 12 A12 12 0 0 0 12 24 A12 12 0 0 0 18.5 22.25 L28 32 L32 28 L22.25 18.5 A12 12 0 0 0 24 12 A12 12 0 0 0 12 0 M12 4 A8 8 0 0 1 12 20 A8 8 0 0 1 12 4" />
  </svg>

  <svg id="heart" class="plangular-icon plangular-icon-heart" xmlns="http://www.w3.org/2000/svg" viewBox="0 0 32 32" width="32" height="32" y="160">
    <path d="M0 10 C0 6, 3 2, 8 2 C12 2, 15 5, 16 6 C17 5, 20 2, 24 2 C30 2, 32 6, 32 10 C32 18, 18 29, 16 30 C14 29, 0 18, 0 10" />
  </svg>

  <svg id="cog" class="plangular-icon plangular-icon-cog" xmlns="http://www.w3.org/2000/svg" viewBox="0 0 32 32" width="32" height="32" y="160">
    <path d="M14 0 H18 L19 6 L20.707 6.707 L26 3.293 L28.707 6 L25.293 11.293 L26 13 L32 14 V18 L26 19 L25.293 20.707 L28.707 26 L26 28.707 L20.707 25.293 L19 26 L18 32 L14 32 L13 26 L11.293 25.293 L6 28.707 L3.293 26 L6.707 20.707 L6 19 L0 18 L0 14 L6 13 L6.707 11.293 L3.293 6 L6 3.293 L11.293 6.707 L13 6 L14 0 z M16 10 A6 6 0 0 0 16 22 A6 6 0 0 0 16 10"/>
  </svg>

  <svg id="close" class="plangular-icon plangular-icon-close" xmlns="http://www.w3.org/2000/svg" viewBox="0 0 32 32" width="32" height="32">
    <path d="M4 8 L8 4 L16 12 L24 4 L28 8 L20 16 L28 24 L24 28 L16 20 L8 28 L4 24 L12 16 z"/>
  </svg>

  <svg id="twitter" class="plangular-icon plangular-icon-twitter" xmlns="http://www.w3.org/2000/svg" viewBox="0 0 32 32" width="32" height="32">
    <path d="M2 4 C6 8 10 12 15 11 A6 6 0 0 1 22 4 A6 6 0 0 1 26 6 A8 8 0 0 0 31 4 A8 8 0 0 1 28 8 A8 8 0 0 0 32 7 A8 8 0 0 1 28 11 A18 18 0 0 1 10 30 A18 18 0 0 1 0 27 A12 12 0 0 0 8 24 A8 8 0 0 1 3 20 A8 8 0 0 0 6 19.5 A8 8 0 0 1 0 12 A8 8 0 0 0 3 13 A8 8 0 0 1 2 4"/>
  </svg>

  <svg id="add-to-set" class="plangular-icon plangular-icon-add-to-set" xmlns="http://www.w3.org/2000/svg" viewBox="0 0 32 32" width="32" height="32">
    <path d="M4 0 H8 V4 H12 V8 H8 V12 H4 V8 H0 V4 H4z M16 4 H32 V8 H16z M8 14 H32 V18 H8z M8 24 H32 V28 H8z "/>
  </svg>

</svg>

